<svg width="28" height="28" viewBox="0 0 28 28" fill="none" xmlns="http://www.w3.org/2000/svg">
<g id="person_FILL0_wght300_GRAD0_opsz40">
<path id="Vector" d="M14 13.629C12.8771 13.629 11.9395 13.2529 11.1872 12.5006C10.4349 11.7483 10.0588 10.8095 10.0588 9.68408C10.0588 8.5587 10.4349 7.62111 11.1872 6.87131C11.9395 6.12153 12.8771 5.74664 14 5.74664C15.1229 5.74664 16.0605 6.12153 16.8127 6.87131C17.565 7.62111 17.9412 8.5587 17.9412 9.68408C17.9412 10.8095 17.565 11.7483 16.8127 12.5006C16.0605 13.2529 15.1229 13.629 14 13.629ZM5.25 22.5256V20.1848C5.25 19.5766 5.41241 19.0362 5.73723 18.5638C6.06205 18.0914 6.48796 17.7284 7.01496 17.4746C8.21801 16.9222 9.39494 16.5066 10.5458 16.2279C11.6966 15.9492 12.8479 15.8098 13.9997 15.8098C15.1516 15.8098 16.301 15.9512 17.448 16.2339C18.5949 16.5166 19.7683 16.9319 20.9682 17.4799C21.509 17.7332 21.9411 18.0953 22.2646 18.5662C22.5882 19.037 22.7499 19.5766 22.7499 20.1848V22.5256H5.25ZM6.71577 21.0598H21.2842V20.1848C21.2842 19.9036 21.1973 19.6367 21.0235 19.3842C20.8498 19.1317 20.6206 18.9314 20.3358 18.7833C19.236 18.2463 18.173 17.8608 17.1468 17.6268C16.1205 17.3927 15.0716 17.2756 14 17.2756C12.9283 17.2756 11.8742 17.3927 10.8375 17.6268C9.80081 17.8608 8.73901 18.2463 7.65211 18.7833C7.36742 18.9314 7.14019 19.1317 6.97042 19.3842C6.80066 19.6367 6.71577 19.9036 6.71577 20.1848V21.0598ZM14 12.1633C14.6995 12.1633 15.2869 11.9256 15.7623 11.4502C16.2377 10.9748 16.4754 10.3873 16.4754 9.68782C16.4754 8.98832 16.2377 8.40088 15.7623 7.92548C15.2869 7.4501 14.6995 7.21241 14 7.21241C13.3005 7.21241 12.713 7.4501 12.2376 7.92548C11.7622 8.40088 11.5245 8.98832 11.5245 9.68782C11.5245 10.3873 11.7622 10.9748 12.2376 11.4502C12.713 11.9256 13.3005 12.1633 14 12.1633Z" fill="#3F3E3E"/>
</g>
</svg>
